<svg id="Group_4226" data-name="Group 4226" xmlns="http://www.w3.org/2000/svg" width="30.038" height="30.038" viewBox="0 0 30.038 30.038">
  <g id="Path_21005" data-name="Path 21005" transform="translate(30.038 0) rotate(90)" fill="#201e4a">
    <path d="M 15.01885318756104 29.5377025604248 C 11.14073276519775 29.5377025604248 7.494723320007324 28.0274829864502 4.7524733543396 25.28523254394531 C 2.010223150253296 22.54298400878906 0.5000031590461731 18.89697265625 0.5000031590461731 15.01885318756104 C 0.5000031590461731 11.14073276519775 2.010223150253296 7.494723320007324 4.7524733543396 4.7524733543396 C 7.494723320007324 2.010223150253296 11.14073276519775 0.5000031590461731 15.01885318756104 0.5000031590461731 C 18.89697265625 0.5000031590461731 22.54298400878906 2.010223150253296 25.28523254394531 4.7524733543396 C 28.0274829864502 7.494723320007324 29.5377025604248 11.14073276519775 29.5377025604248 15.01885318756104 C 29.5377025604248 18.89697265625 28.0274829864502 22.54298400878906 25.28523254394531 25.28523254394531 C 22.54298400878906 28.0274829864502 18.89697265625 29.5377025604248 15.01885318756104 29.5377025604248 Z" stroke="none"/>
    <path d="M 15.01885318756104 1.000003814697266 C 11.27428245544434 1.000003814697266 7.753843307495117 2.458223342895508 5.106033325195312 5.106033325195312 C 2.458223342895508 7.753843307495117 1.000003814697266 11.27428245544434 1.000003814697266 15.01885318756104 C 1.000003814697266 18.76342391967773 2.458223342895508 22.28386306762695 5.106033325195312 24.93167304992676 C 7.753843307495117 27.57948303222656 11.27428245544434 29.0377025604248 15.01885318756104 29.0377025604248 C 18.76342391967773 29.0377025604248 22.28386306762695 27.57948303222656 24.93167304992676 24.93167304992676 C 27.57948303222656 22.28386306762695 29.0377025604248 18.76342391967773 29.0377025604248 15.01885318756104 C 29.0377025604248 11.27428245544434 27.57948303222656 7.753843307495117 24.93167304992676 5.106033325195312 C 22.28386306762695 2.458223342895508 18.76342391967773 1.000003814697266 15.01885318756104 1.000003814697266 M 15.01885318756104 3.814697265625e-06 C 23.31353378295898 3.814697265625e-06 30.0377025604248 6.724172592163086 30.0377025604248 15.01885318756104 C 30.0377025604248 23.31353378295898 23.31353378295898 30.0377025604248 15.01885318756104 30.0377025604248 C 6.724172592163086 30.0377025604248 3.814697265625e-06 23.31353378295898 3.814697265625e-06 15.01885318756104 C 3.814697265625e-06 6.724172592163086 6.724172592163086 3.814697265625e-06 15.01885318756104 3.814697265625e-06 Z" stroke="none" fill="#201e4a"/>
  </g>
  <path id="Path_21007" data-name="Path 21007" d="M7.85,13,1.8,6.95,7.85.9,6.95,0,0,6.95,6.95,13.9Z" transform="translate(8.069 20.162) rotate(-90)" fill="#fff" fill-rule="evenodd"/>
</svg>
