<svg xmlns="http://www.w3.org/2000/svg" width="47.174" height="47.174" viewBox="0 0 47.174 47.174">
  <g id="Group_4098" data-name="Group 4098" transform="translate(-858.913 -120)">
    <g id="Path_21005" data-name="Path 21005" transform="translate(906.087 120) rotate(90)" fill="#fff" opacity="0.25">
      <path d="M 23.5869140625 46.67383575439453 C 20.46998405456543 46.67383575439453 17.4465446472168 46.06349563598633 14.60060405731201 44.8597526550293 C 11.85148429870605 43.69697570800781 9.382424354553223 42.03225326538086 7.262003898620605 39.91183471679688 C 5.141583919525146 37.79140472412109 3.476864099502563 35.32234573364258 2.314084053039551 32.57323455810547 C 1.110344052314758 29.7272834777832 0.5000040531158447 26.70384407043457 0.5000040531158447 23.5869140625 C 0.5000040531158447 20.46998405456543 1.110344052314758 17.4465446472168 2.314084053039551 14.60060405731201 C 3.476864099502563 11.85148429870605 5.141583919525146 9.382424354553223 7.262003898620605 7.262003898620605 C 9.382424354553223 5.141583919525146 11.85148429870605 3.476864099502563 14.60060405731201 2.314084053039551 C 17.4465446472168 1.110344052314758 20.46998405456543 0.5000040531158447 23.5869140625 0.5000040531158447 C 26.70384407043457 0.5000040531158447 29.7272834777832 1.110344052314758 32.57323455810547 2.314084053039551 C 35.32234573364258 3.476864099502563 37.79140472412109 5.141583919525146 39.91183471679688 7.262003898620605 C 42.03225326538086 9.382424354553223 43.69697570800781 11.85148429870605 44.8597526550293 14.60060405731201 C 46.06349563598633 17.4465446472168 46.67383575439453 20.46998405456543 46.67383575439453 23.5869140625 C 46.67383575439453 26.70384407043457 46.06349563598633 29.7272834777832 44.8597526550293 32.57322311401367 C 43.69697570800781 35.32234573364258 42.03225326538086 37.79140472412109 39.91183471679688 39.91183471679688 C 37.79140472412109 42.03225326538086 35.32234573364258 43.69697570800781 32.57322311401367 44.8597526550293 C 29.7272834777832 46.06349563598633 26.70384407043457 46.67383575439453 23.5869140625 46.67383575439453 Z" stroke="none"/>
      <path d="M 23.5869140625 0.9999923706054688 C 20.53726387023926 0.9999923706054688 17.57936477661133 1.597053527832031 14.79537582397461 2.774574279785156 C 12.10586547851562 3.912143707275391 9.690212249755859 5.540885925292969 7.615554809570312 7.615554809570312 C 5.540885925292969 9.690212249755859 3.912143707275391 12.10586547851562 2.774574279785156 14.79537582397461 C 1.597053527832031 17.57936477661133 0.9999923706054688 20.53726387023926 0.9999923706054688 23.5869140625 C 0.9999923706054688 26.63656425476074 1.597053527832031 29.59446334838867 2.774574279785156 32.37845611572266 C 3.912143707275391 35.06796264648438 5.540885925292969 37.48360443115234 7.615554809570312 39.55827331542969 C 9.690212249755859 41.6329345703125 12.10586547851562 43.26167297363281 14.79537582397461 44.39924240112305 C 17.57935333251953 45.57676315307617 20.53726387023926 46.17382431030273 23.5869140625 46.17382431030273 C 26.63656425476074 46.17382431030273 29.59446334838867 45.57676315307617 32.37845611572266 44.39924240112305 C 35.06796264648438 43.26167297363281 37.48360443115234 41.6329345703125 39.55827331542969 39.55827331542969 C 41.6329345703125 37.48360443115234 43.26167297363281 35.06796264648438 44.39924240112305 32.37845611572266 C 45.57676315307617 29.59446334838867 46.17382431030273 26.63656425476074 46.17382431030273 23.5869140625 C 46.17382431030273 20.53726387023926 45.57676315307617 17.57935333251953 44.39924240112305 14.79537582397461 C 43.26167297363281 12.10586547851562 41.6329345703125 9.690212249755859 39.55827331542969 7.615554809570312 C 37.48360443115234 5.540885925292969 35.06796264648438 3.912143707275391 32.37845611572266 2.774574279785156 C 29.59446334838867 1.597053527832031 26.63656425476074 0.9999923706054688 23.5869140625 0.9999923706054688 M 23.5869140625 -7.62939453125e-06 C 36.61360168457031 -7.62939453125e-06 47.17382431030273 10.56022262573242 47.17382431030273 23.5869140625 C 47.17382431030273 36.61360168457031 36.61360168457031 47.17382431030273 23.5869140625 47.17382431030273 C 10.56022262573242 47.17382431030273 -7.62939453125e-06 36.61360168457031 -7.62939453125e-06 23.5869140625 C -7.62939453125e-06 10.56022262573242 10.56022262573242 -7.62939453125e-06 23.5869140625 -7.62939453125e-06 Z" stroke="none" fill="#fff"/>
    </g>
    <path id="Path_21007" data-name="Path 21007" d="M12.328-1.414l-9.5-9.5,9.5-9.5-1.414-1.414L0-10.914,10.914,0Z" transform="translate(893.414 151.664) rotate(-90)" fill="#fff" fill-rule="evenodd"/>
  </g>
</svg>
