<svg xmlns="http://www.w3.org/2000/svg" width="19.42" height="18.556" viewBox="0 0 19.42 18.556">
  <path id="LinkedIn" d="M19.42,20.935v7.18H15.258v-6.7c0-1.683-.6-2.831-2.109-2.831a2.278,2.278,0,0,0-2.136,1.523,2.848,2.848,0,0,0-.138,1.015v6.992H6.712s.056-11.345,0-12.521h4.163v1.775c-.008.013-.019.028-.027.04h.027v-.04A4.134,4.134,0,0,1,14.627,15.3C17.366,15.3,19.42,17.089,19.42,20.935ZM2.356,9.558A2.17,2.17,0,1,0,2.3,13.885h.028a2.17,2.17,0,1,0,.027-4.327ZM.247,28.114H4.409V15.594H.247Z" transform="translate(0 -9.558)" fill="#fff"/>
</svg>
