<?xml version="1.0" encoding="UTF-8"?>
<svg xmlns="http://www.w3.org/2000/svg" version="1.2" viewBox="0 0 24 24" width="40" height="40">
  <title>pause-circle-svgrepo-com-svg</title>
  <style>
		.s0 { fill: #ffffff;stroke: #ffffff } 
	</style>
  <g id="SVGRepo_bgCarrier">
	</g>
  <g id="SVGRepo_tracerCarrier">
	</g>
  <g id="SVGRepo_iconCarrier">
    <path id="Layer" fill-rule="evenodd" class="s0" d="m2 12c0-5.5 4.5-10 10-10 5.5 0 10 4.5 10 10 0 5.5-4.5 10-10 10-5.5 0-10-4.5-10-10zm6.1-3.4c-0.1 0.2-0.1 0.4-0.1 0.9v5c0 0.5 0 0.7 0.1 0.9q0.1 0.4 0.5 0.5c0.2 0.1 0.4 0.1 0.9 0.1 0.5 0 0.7 0 0.9-0.1q0.4-0.1 0.5-0.5c0.1-0.2 0.1-0.4 0.1-0.9v-5c0-0.5 0-0.7-0.1-0.9q-0.1-0.4-0.5-0.5c-0.2-0.1-0.4-0.1-0.9-0.1-0.5 0-0.7 0-0.9 0.1q-0.4 0.1-0.5 0.5zm5 0c-0.1 0.2-0.1 0.4-0.1 0.9v5c0 0.5 0 0.7 0.1 0.9q0.1 0.4 0.5 0.5c0.2 0.1 0.4 0.1 0.9 0.1 0.5 0 0.7 0 0.9-0.1q0.4-0.1 0.5-0.5c0.1-0.2 0.1-0.4 0.1-0.9v-5c0-0.5 0-0.7-0.1-0.9q-0.1-0.4-0.5-0.5c-0.2-0.1-0.4-0.1-0.9-0.1-0.5 0-0.7 0-0.9 0.1q-0.4 0.1-0.5 0.5z"></path>
  </g>
</svg>
